<svg width="455" height="388" viewBox="0 0 455 388" fill="none" xmlns="http://www.w3.org/2000/svg">
<g clip-path="url(#clip0_101_2)">
<rect width="455" height="388" fill="white"/>
<path d="M0 10.5097V0.759339C0 0.0841888 1.13707 -0.253917 1.80207 0.223478L8.59305 5.09867C9.00527 5.39461 9.00527 5.87446 8.59305 6.1704L1.80207 11.0456C1.13707 11.523 0 11.1849 0 10.5097Z" fill="#C4C4C4"/>
<path d="M280.914 10.5097V0.759339C280.914 0.0841888 282.051 -0.253917 282.716 0.223478L289.507 5.09867C289.92 5.39461 289.92 5.87446 289.507 6.1704L282.716 11.0456C282.051 11.523 280.914 11.1849 280.914 10.5097Z" fill="#C4C4C4"/>
<path d="M446.972 10.5097V0.759339C446.972 0.0841888 448.109 -0.253917 448.774 0.223478L455.565 5.09867C455.977 5.39461 455.977 5.87446 455.565 6.1704L448.774 11.0456C448.109 11.523 446.972 11.1849 446.972 10.5097Z" fill="#C4C4C4"/>
<path d="M434.946 10.5097V0.759339C434.946 0.0841888 436.083 -0.253917 436.748 0.223478L443.539 5.09867C443.951 5.39461 443.951 5.87446 443.539 6.1704L436.748 11.0456C436.083 11.523 434.946 11.1849 434.946 10.5097Z" fill="#C4C4C4"/>
<path d="M423.922 10.5097V0.759339C423.922 0.0841888 425.059 -0.253917 425.724 0.223478L432.515 5.09867C432.927 5.39461 432.927 5.87446 432.515 6.1704L425.724 11.0456C425.059 11.523 423.922 11.1849 423.922 10.5097Z" fill="#C4C4C4"/>
<path d="M411.895 10.5097V0.759339C411.895 0.0841888 413.032 -0.253917 413.697 0.223478L420.488 5.09867C420.901 5.39461 420.901 5.87446 420.488 6.1704L413.697 11.0456C413.032 11.523 411.895 11.1849 411.895 10.5097Z" fill="#C4C4C4"/>
<path d="M400.6 10.5097V0.759339C400.6 0.0841888 401.737 -0.253917 402.402 0.223478L409.193 5.09867C409.605 5.39461 409.605 5.87446 409.193 6.1704L402.402 11.0456C401.737 11.523 400.6 11.1849 400.6 10.5097Z" fill="#C4C4C4"/>
<path d="M389.719 10.5097V0.759339C389.719 0.0841888 390.856 -0.253917 391.521 0.223478L398.312 5.09867C398.725 5.39461 398.725 5.87446 398.312 6.1704L391.521 11.0456C390.856 11.523 389.719 11.1849 389.719 10.5097Z" fill="#C4C4C4"/>
<path d="M378.839 10.5097V0.759339C378.839 0.0841888 379.976 -0.253917 380.641 0.223478L387.432 5.09867C387.844 5.39461 387.844 5.87446 387.432 6.1704L380.641 11.0456C379.976 11.523 378.839 11.1849 378.839 10.5097Z" fill="#C4C4C4"/>
<path d="M367.958 10.5097V0.759339C367.958 0.0841888 369.095 -0.253917 369.76 0.223478L376.551 5.09867C376.964 5.39461 376.964 5.87446 376.551 6.1704L369.76 11.0456C369.095 11.523 367.958 11.1849 367.958 10.5097Z" fill="#C4C4C4"/>
<path d="M357.078 10.5097V0.759339C357.078 0.0841888 358.215 -0.253917 358.88 0.223478L365.671 5.09867C366.083 5.39461 366.083 5.87446 365.671 6.1704L358.88 11.0456C358.215 11.523 357.078 11.1849 357.078 10.5097Z" fill="#C4C4C4"/>
<path d="M346.197 10.5097V0.759339C346.197 0.0841888 347.334 -0.253917 347.999 0.223478L354.79 5.09867C355.203 5.39461 355.203 5.87446 354.79 6.1704L347.999 11.0456C347.334 11.523 346.197 11.1849 346.197 10.5097Z" fill="#C4C4C4"/>
<path d="M335.317 10.5097V0.759339C335.317 0.0841888 336.454 -0.253917 337.119 0.223478L343.91 5.09867C344.322 5.39461 344.322 5.87446 343.91 6.1704L337.119 11.0456C336.454 11.523 335.317 11.1849 335.317 10.5097Z" fill="#C4C4C4"/>
<path d="M324.436 10.5097V0.759339C324.436 0.0841888 325.573 -0.253917 326.238 0.223478L333.029 5.09867C333.442 5.39461 333.442 5.87446 333.029 6.1704L326.238 11.0456C325.573 11.523 324.436 11.1849 324.436 10.5097Z" fill="#C4C4C4"/>
<path d="M313.556 10.5097V0.759339C313.556 0.0841888 314.693 -0.253917 315.358 0.223478L322.149 5.09867C322.561 5.39461 322.561 5.87446 322.149 6.1704L315.358 11.0456C314.693 11.523 313.556 11.1849 313.556 10.5097Z" fill="#C4C4C4"/>
<path d="M302.675 10.5097V0.759339C302.675 0.0841888 303.812 -0.253917 304.477 0.223478L311.268 5.09867C311.681 5.39461 311.681 5.87446 311.268 6.1704L304.477 11.0456C303.812 11.523 302.675 11.1849 302.675 10.5097Z" fill="#C4C4C4"/>
<path d="M291.795 10.5097V0.759339C291.795 0.0841888 292.932 -0.253917 293.597 0.223478L300.388 5.09867C300.8 5.39461 300.8 5.87446 300.388 6.1704L293.597 11.0456C292.932 11.523 291.795 11.1849 291.795 10.5097Z" fill="#C4C4C4"/>
<path d="M270.034 10.5097V0.759339C270.034 0.0841888 271.171 -0.253917 271.836 0.223478L278.627 5.09867C279.039 5.39461 279.039 5.87446 278.627 6.1704L271.836 11.0456C271.171 11.523 270.034 11.1849 270.034 10.5097Z" fill="#C4C4C4"/>
<path d="M259.153 10.5097V0.759339C259.153 0.0841888 260.29 -0.253917 260.955 0.223478L267.746 5.09867C268.159 5.39461 268.159 5.87446 267.746 6.1704L260.955 11.0456C260.29 11.523 259.153 11.1849 259.153 10.5097Z" fill="#C4C4C4"/>
<path d="M248.273 10.5097V0.759339C248.273 0.0841888 249.41 -0.253917 250.075 0.223478L256.866 5.09867C257.278 5.39461 257.278 5.87446 256.866 6.1704L250.075 11.0456C249.41 11.523 248.273 11.1849 248.273 10.5097Z" fill="#C4C4C4"/>
<path d="M237.392 10.5097V0.759339C237.392 0.0841888 238.529 -0.253917 239.194 0.223478L245.985 5.09867C246.398 5.39461 246.398 5.87446 245.985 6.1704L239.194 11.0456C238.529 11.523 237.392 11.1849 237.392 10.5097Z" fill="#C4C4C4"/>
<path d="M225.523 10.5097V0.759339C225.523 0.0841888 226.786 -0.253917 227.525 0.223478L235.071 5.09867C235.529 5.39461 235.529 5.87446 235.071 6.1704L227.525 11.0456C226.786 11.523 225.523 11.1849 225.523 10.5097Z" fill="#C4C4C4"/>
<path d="M213.653 10.5097V0.759339C213.653 0.0841888 214.917 -0.253917 215.655 0.223478L223.201 5.09867C223.659 5.39461 223.659 5.87446 223.201 6.1704L215.655 11.0456C214.917 11.523 213.653 11.1849 213.653 10.5097Z" fill="#C4C4C4"/>
<path d="M201.784 10.5097V0.759339C201.784 0.0841888 203.047 -0.253917 203.786 0.223478L211.331 5.09867C211.789 5.39461 211.789 5.87446 211.331 6.1704L203.786 11.0456C203.047 11.523 201.784 11.1849 201.784 10.5097Z" fill="#C4C4C4"/>
<path d="M189.914 10.5097V0.759339C189.914 0.0841888 191.177 -0.253917 191.916 0.223478L199.462 5.09867C199.92 5.39461 199.92 5.87446 199.462 6.1704L191.916 11.0456C191.177 11.523 189.914 11.1849 189.914 10.5097Z" fill="#C4C4C4"/>
<path d="M178.044 10.5097V0.759339C178.044 0.0841888 179.308 -0.253917 180.047 0.223478L187.592 5.09867C188.05 5.39461 188.05 5.87446 187.592 6.1704L180.047 11.0456C179.308 11.523 178.044 11.1849 178.044 10.5097Z" fill="#C4C4C4"/>
<path d="M166.175 10.5097V0.759339C166.175 0.0841888 167.438 -0.253917 168.177 0.223478L175.723 5.09867C176.181 5.39461 176.181 5.87446 175.723 6.1704L168.177 11.0456C167.438 11.523 166.175 11.1849 166.175 10.5097Z" fill="#C4C4C4"/>
<path d="M154.305 10.5097V0.759339C154.305 0.0841888 155.568 -0.253917 156.307 0.223478L163.853 5.09867C164.311 5.39461 164.311 5.87446 163.853 6.1704L156.307 11.0456C155.568 11.523 154.305 11.1849 154.305 10.5097Z" fill="#C4C4C4"/>
<path d="M142.435 10.5097V0.759339C142.435 0.0841888 143.699 -0.253917 144.438 0.223478L151.983 5.09867C152.441 5.39461 152.441 5.87446 151.983 6.1704L144.438 11.0456C143.699 11.523 142.435 11.1849 142.435 10.5097Z" fill="#C4C4C4"/>
<path d="M130.566 10.5097V0.759339C130.566 0.0841888 131.829 -0.253917 132.568 0.223478L140.114 5.09867C140.572 5.39461 140.572 5.87446 140.114 6.1704L132.568 11.0456C131.829 11.523 130.566 11.1849 130.566 10.5097Z" fill="#C4C4C4"/>
<path d="M118.696 10.5097V0.759339C118.696 0.0841888 119.96 -0.253917 120.699 0.223478L128.244 5.09867C128.702 5.39461 128.702 5.87446 128.244 6.1704L120.699 11.0456C119.96 11.523 118.696 11.1849 118.696 10.5097Z" fill="#C4C4C4"/>
<path d="M11.8696 10.5097V0.759339C11.8696 0.0841888 13.133 -0.253917 13.8719 0.223478L21.4174 5.09867C21.8755 5.39461 21.8755 5.87446 21.4174 6.1704L13.8719 11.0456C13.133 11.523 11.8696 11.1849 11.8696 10.5097Z" fill="#C4C4C4"/>
<path d="M23.7392 10.5097V0.759339C23.7392 0.0841888 25.0027 -0.253917 25.7415 0.223478L33.2871 5.09867C33.7451 5.39461 33.7451 5.87446 33.2871 6.1704L25.7415 11.0456C25.0027 11.523 23.7392 11.1849 23.7392 10.5097Z" fill="#C4C4C4"/>
<path d="M35.6089 10.5097V0.759339C35.6089 0.0841888 36.8723 -0.253917 37.6112 0.223478L45.1567 5.09867C45.6147 5.39461 45.6147 5.87446 45.1567 6.1704L37.6112 11.0456C36.8723 11.523 35.6089 11.1849 35.6089 10.5097Z" fill="#C4C4C4"/>
<path d="M106.827 10.5097V0.759339C106.827 0.0841888 108.09 -0.253917 108.829 0.223478L116.374 5.09867C116.832 5.39461 116.832 5.87446 116.374 6.1704L108.829 11.0456C108.09 11.523 106.827 11.1849 106.827 10.5097Z" fill="#C4C4C4"/>
<path d="M94.957 10.5097V0.759339C94.957 0.0841888 96.2204 -0.253917 96.9593 0.223478L104.505 5.09867C104.963 5.39461 104.963 5.87446 104.505 6.1704L96.9593 11.0456C96.2204 11.523 94.957 11.1849 94.957 10.5097Z" fill="#C4C4C4"/>
<path d="M83.0874 10.5097V0.759339C83.0874 0.0841888 84.3508 -0.253917 85.0897 0.223478L92.6352 5.09867C93.0932 5.39461 93.0932 5.87446 92.6352 6.1704L85.0897 11.0456C84.3508 11.523 83.0874 11.1849 83.0874 10.5097Z" fill="#C4C4C4"/>
<path d="M71.2177 10.5097V0.759339C71.2177 0.0841888 72.4811 -0.253917 73.22 0.223478L80.7655 5.09867C81.2236 5.39461 81.2236 5.87446 80.7655 6.1704L73.22 11.0456C72.4811 11.523 71.2177 11.1849 71.2177 10.5097Z" fill="#C4C4C4"/>
<path d="M59.3481 10.5097V0.759339C59.3481 0.0841888 60.6115 -0.253917 61.3504 0.223478L68.8959 5.09867C69.354 5.39461 69.354 5.87446 68.8959 6.1704L61.3504 11.0456C60.6115 11.523 59.3481 11.1849 59.3481 10.5097Z" fill="#C4C4C4"/>
<path d="M47.4785 10.5097V0.759339C47.4785 0.0841888 48.7419 -0.253917 49.4808 0.223478L57.0263 5.09867C57.4843 5.39461 57.4843 5.87446 57.0263 6.1704L49.4808 11.0456C48.7419 11.523 47.4785 11.1849 47.4785 10.5097Z" fill="#C4C4C4"/>
</g>
<defs>
<clipPath id="clip0_101_2">
<rect width="455" height="388" fill="white"/>
</clipPath>
</defs>
</svg>
